# xmcd
#
# Track frame offsets:
#	150
#	19162
#	24931
#	43171
#	65854
#	84031
#	107392
#	119707
#	144953
#	165794
#	185628
#	212049
#	225234
#	251158
#	270601
#	294140
#	310832
#
# Disc length: 4358 seconds
#
# Revision: 0
# Processed by: cddbd v1.5.2PL0 Copyright (c) Steve Scherf et al.
# Submitted via: VUPlayer 2.49
#
DISCID=de110411
DTITLE=Dr Joe Hardin and Zzaj - The Scarab Polemic
DYEAR=1994
DGENRE=Blues
TTITLE0=Dr Joe Hardin and Zzaj - 92 Boogie
TTITLE1=Dr Joe Hardin and Zzaj - Big Thump
TTITLE2=Dr Joe Hardin and Zzaj - Boogie Nose (No Bounds)
TTITLE3=Dr Joe Hardin and Zzaj - Deranged Organ
TTITLE4=Dr Joe Hardin and Zzaj - Dream Number 394
TTITLE5=Dr Joe Hardin and Zzaj - High Away
TTITLE6=Dr Joe Hardin and Zzaj - Hunting Frogs on The Beach With A Metal Detecto
TTITLE6=r
TTITLE7=Dr Joe Hardin and Zzaj - I Ain't Makin No Cake
TTITLE8=Dr Joe Hardin and Zzaj - Illuminar Blur
TTITLE9=Dr Joe Hardin and Zzaj - Missing Figures
TTITLE10=Dr Joe Hardin and Zzaj - Rain Dogs and Whistle Blowers
TTITLE11=Dr Joe Hardin and Zzaj - Rasputin (Gesundheit)
TTITLE12=Dr Joe Hardin and Zzaj - Sampledelphia
TTITLE13=Dr Joe Hardin and Zzaj - Street Signs
TTITLE14=Dr Joe Hardin and Zzaj - Tequila Purge
TTITLE15=Dr Joe Hardin and Zzaj - The Madison Avenue Twist
TTITLE16=Dr Joe Hardin and Zzaj - Twisted Latino
EXTD=
EXTT0=
EXTT1=
EXTT2=
EXTT3=
EXTT4=
EXTT5=
EXTT6=
EXTT7=
EXTT8=
EXTT9=
EXTT10=
EXTT11=
EXTT12=
EXTT13=
EXTT14=
EXTT15=
EXTT16=
PLAYORDER=
